<svg xmlns="http://www.w3.org/2000/svg" viewBox="0 0 128 128" width="128" height="128">
  <defs>
    <radialGradient id="pumpGrad" cx="40%" cy="35%" r="65%">
      <stop offset="0%" stop-color="#fed7aa"/>
      <stop offset="35%" stop-color="#fb923c"/>
      <stop offset="75%" stop-color="#ea580c"/>
      <stop offset="100%" stop-color="#9a3412"/>
    </radialGradient>
    <filter id="pumpShadow" x="-20%" y="-20%" width="140%" height="140%">
      <feDropShadow dx="0" dy="6" stdDeviation="6" flood-color="#9a3412" flood-opacity="0.4"/>
    </filter>
  </defs>
  <g filter="url(#pumpShadow)">
    <path d="M64 28 C 64 16, 72 14, 76 10" fill="none" stroke="#15803d" stroke-width="6" stroke-linecap="round"/>
    <ellipse cx="64" cy="72" rx="46" ry="40" fill="url(#pumpGrad)"/>
    <path d="M42 36 C 34 50, 34 94, 42 108" fill="none" stroke="#c2410c" stroke-width="3" opacity="0.5"/>
    <path d="M86 36 C 94 50, 94 94, 86 108" fill="none" stroke="#c2410c" stroke-width="3" opacity="0.5"/>
    <polygon points="46,60 56,70 38,70" fill="#fef08a"/>
    <polygon points="82,60 90,70 72,70" fill="#fef08a"/>
    <polygon points="48,84 54,92 60,84 66,92 72,84 78,92 80,82 48,82" fill="#fef08a"/>
  </g>
</svg>