<svg xmlns="http://www.w3.org/2000/svg" viewBox="0 0 128 128" width="128" height="128">
  <defs>
    <linearGradient id="cometTail" x1="0" y1="1" x2="1" y2="0">
      <stop offset="0%" stop-color="#ff4fa0" stop-opacity="0"/>
      <stop offset="40%" stop-color="#7c4dff" stop-opacity="0.5"/>
      <stop offset="80%" stop-color="#38bdf8"/>
      <stop offset="100%" stop-color="#ffffff"/>
    </linearGradient>
    <radialGradient id="starHead" cx="50%" cy="50%" r="50%">
      <stop offset="0%" stop-color="#ffffff"/>
      <stop offset="40%" stop-color="#fef08a"/>
      <stop offset="80%" stop-color="#f59e0b"/>
      <stop offset="100%" stop-color="#d97706"/>
    </radialGradient>
    <filter id="trailShadow" x="-20%" y="-20%" width="140%" height="140%">
      <feDropShadow dx="0" dy="6" stdDeviation="6" flood-color="#7c4dff" flood-opacity="0.4"/>
    </filter>
  </defs>
  <g filter="url(#trailShadow)">
    <path d="M16 112 Q 36 96 52 74 Q 68 52 86 36 Q 64 64 42 88 Z" fill="url(#cometTail)"/>
    <path d="M28 116 Q 46 98 62 78 Q 74 60 90 40 Q 72 70 52 96 Z" fill="url(#cometTail)" opacity="0.6"/>
    <g transform="translate(86, 36)">
      <polygon points="0,-24 6,-8 22,0 6,8 0,24 -6,8 -22,0 -6,-8" fill="url(#starHead)"/>
      <circle cx="0" cy="0" r="6" fill="white"/>
    </g>
    <circle cx="48" cy="80" r="3.5" fill="#fef08a"/>
    <circle cx="34" cy="98" r="2.5" fill="#38bdf8"/>
    <circle cx="68" cy="58" r="3" fill="#ff4fa0"/>
    <circle cx="78" cy="24" r="2" fill="white"/>
  </g>
</svg>