<svg xmlns="http://www.w3.org/2000/svg" viewBox="0 0 128 128" width="128" height="128">
  <defs>
    <linearGradient id="tagGold" x1="0" y1="0" x2="1" y2="1">
      <stop offset="0%" stop-color="#fff8db"/>
      <stop offset="40%" stop-color="#ffd54f"/>
      <stop offset="100%" stop-color="#b26b00"/>
    </linearGradient>
    <filter id="tagShadow" x="-20%" y="-20%" width="140%" height="140%">
      <feDropShadow dx="0" dy="6" stdDeviation="6" flood-color="#2a0f3a" flood-opacity="0.35"/>
    </filter>
  </defs>
  <g filter="url(#tagShadow)" transform="rotate(-25 64 64)">
    <path d="M28 64 C 18 54, 18 36, 32 30 C 44 24, 52 38, 42 54" fill="none" stroke="#e2e8f0" stroke-width="4" stroke-linecap="round"/>
    <path d="M42 42 L98 42 C 104 42, 108 46, 108 52 L 108 76 C 108 82, 104 86, 98 86 L 42 86 L 24 64 Z" fill="url(#tagGold)"/>
    <circle cx="36" cy="64" r="5.5" fill="#8f5200"/>
    <circle cx="36" cy="64" r="3.5" fill="#f8fafc"/>
    <rect x="52" y="54" width="44" height="4" rx="2" fill="#8f5200" opacity="0.6"/>
    <rect x="52" y="66" width="30" height="4" rx="2" fill="#8f5200" opacity="0.6"/>
  </g>
</svg>